P2
128 120
255
63 68 82 84 84 77 70 58 58 58 56 58 56 56 56 56 55 53 53 53 51 51 49 49 48 46 48 46 46 44 44 44 43 43 41 41 41 39 39 37 37 36 36 34 34 32 32 32 31 32 34 36 43 43 41 37 27 29 25 37 36 34 36 34 34 34 32 32 32 27 34 36 39 39 39 39 39 39 39 41 41 41 43 41 41 43 44 43 43 44 44 43 44 44 44 44 46 46 46 48 48 49 49 49 49 51 49 49 49 49 49 49 49 51 49 49 51 51 51 51 51 51 49 49 49 49 48 49 
8 18 32 46 58 77 77 58 56 58 58 56 56 56 56 55 55 55 53 51 51 49 49 49 49 48 46 48 46 44 44 43 43 41 41 39 39 39 39 37 37 36 36 36 36 34 34 32 32 31 34 36 43 43 43 39 27 31 27 36 37 37 36 34 34 36 32 32 32 29 32 34 37 37 39 37 41 41 43 41 41 41 43 43 43 43 43 43 44 44 46 44 44 46 46 46 46 46 48 48 48 48 49 48 49 49 49 49 49 49 51 49 51 51 51 51 49 51 49 49 49 49 49 51 51 51 49 48 
0 0 0 0 0 62 77 58 56 56 56 55 55 55 53 55 55 55 53 53 51 51 49 49 49 49 46 46 46 44 43 43 43 43 41 41 41 39 37 37 37 36 34 34 34 34 32 32 32 32 34 37 41 43 43 41 29 31 31 36 39 36 36 34 34 36 32 34 32 27 34 34 37 39 39 39 41 41 41 41 41 43 43 43 43 43 43 43 44 44 44 44 44 44 46 46 46 48 48 48 48 48 49 49 49 51 49 49 49 51 49 49 48 48 48 49 49 51 51 51 51 49 49 49 49 49 49 49 
0 0 0 0 0 60 77 58 58 56 58 56 56 56 55 55 55 53 53 51 49 49 49 48 49 48 48 46 46 46 46 44 44 43 43 41 41 41 41 37 37 39 37 36 36 34 34 32 34 34 34 37 43 43 43 41 29 31 32 34 39 39 37 37 37 39 34 34 34 29 36 37 41 41 41 43 43 43 43 43 43 43 43 43 43 43 44 44 46 44 46 46 46 46 46 48 48 48 48 48 48 48 49 49 49 49 49 49 48 48 48 48 49 48 49 49 49 49 49 51 49 48 49 48 49 49 48 49 
3 8 0 0 0 58 77 60 56 56 56 56 56 55 55 53 55 53 53 53 51 53 49 49 49 48 48 46 46 46 46 44 44 44 41 43 41 41 39 39 39 37 37 36 36 36 34 34 34 34 36 37 44 44 44 41 29 31 34 32 39 37 37 36 36 37 34 36 36 31 37 37 41 41 43 43 43 43 43 43 43 43 44 44 43 44 44 44 44 46 46 46 46 46 48 46 48 48 48 48 49 49 48 48 48 48 48 49 49 49 49 51 51 51 49 49 49 49 49 48 49 49 51 51 49 49 48 49 
8 8 0 0 0 53 75 58 56 58 56 56 56 55 56 55 55 55 53 53 51 49 49 49 49 49 48 48 46 46 46 44 44 44 43 43 43 41 41 39 39 37 37 36 36 36 36 34 34 34 36 37 44 44 44 43 31 31 39 32 39 39 39 39 37 39 36 34 36 32 36 37 41 41 43 43 44 43 44 44 44 44 44 44 44 44 46 46 44 46 48 46 48 48 48 48 49 48 48 48 48 48 48 48 49 49 49 49 51 49 51 49 49 53 51 49 49 49 49 49 49 51 49 49 49 49 49 49 
0 1 0 0 0 56 75 58 58 56 56 55 55 53 53 55 53 53 53 51 51 51 51 49 49 49 48 48 48 46 44 44 43 43 43 43 41 39 41 39 39 39 37 37 36 36 36 34 36 34 36 39 46 44 46 43 31 32 41 31 39 39 39 37 37 37 36 36 36 32 36 37 43 43 43 43 43 43 43 44 44 43 44 43 44 46 46 46 48 48 48 46 48 46 46 46 48 48 48 49 49 49 51 49 51 49 49 51 49 49 49 49 49 49 49 48 49 48 49 49 49 49 49 49 49 48 48 48 
0 5 10 0 0 55 74 58 56 58 56 56 56 55 55 55 53 53 51 51 51 51 49 48 49 48 48 48 48 46 46 44 44 44 44 43 43 43 41 41 39 39 37 37 37 36 36 36 36 36 37 39 44 46 46 44 32 31 43 31 41 41 41 39 39 37 37 37 37 32 37 37 43 43 44 44 44 44 44 44 44 46 46 46 46 46 46 46 46 46 46 46 46 46 48 48 48 49 51 49 51 51 51 51 51 51 51 51 51 51 51 49 51 51 49 49 49 49 49 49 49 49 48 48 48 48 49 49 
0 1 5 0 0 53 74 60 56 58 56 56 56 55 55 55 53 53 53 53 53 53 51 51 49 49 49 48 48 46 46 44 43 43 44 43 43 43 41 41 41 41 39 39 39 37 37 36 36 36 37 39 46 46 46 44 34 32 44 31 41 41 41 39 39 36 37 37 37 34 37 37 44 44 46 46 46 46 46 44 46 44 44 46 46 46 46 46 48 48 48 46 48 49 49 48 49 48 51 49 49 49 51 51 51 51 51 51 51 49 51 51 51 51 48 49 49 49 49 49 49 49 51 51 51 49 49 49 
0 0 1 3 6 56 74 58 56 56 56 55 56 55 55 55 55 53 53 51 51 51 51 49 49 48 49 48 48 48 46 46 46 44 46 44 43 43 41 41 41 41 39 39 39 37 36 37 37 37 39 41 48 48 48 46 32 32 46 32 41 41 41 39 41 37 39 37 37 34 37 37 44 44 43 44 44 44 46 44 44 44 46 46 49 48 48 48 46 46 48 48 48 49 48 49 49 51 51 51 51 51 53 51 51 51 51 51 49 49 49 51 51 51 51 51 51 49 49 49 49 49 51 49 49 51 49 49 
41 31 24 17 24 62 72 58 56 56 56 55 55 55 53 55 53 53 51 53 51 51 51 51 49 49 49 48 48 46 46 44 44 44 44 44 44 43 43 41 41 41 41 39 39 39 37 37 37 37 39 41 48 48 48 46 34 32 46 36 39 43 43 41 41 36 39 37 37 36 37 39 44 44 44 44 44 43 44 44 44 46 46 46 48 46 48 48 48 48 48 49 49 49 51 51 51 49 53 51 51 51 51 51 51 51 51 49 51 51 49 51 49 51 51 49 51 49 51 49 49 49 51 49 49 49 48 48 
49 55 58 60 60 63 65 58 58 58 58 56 56 55 55 55 53 53 53 53 53 51 51 49 49 49 48 48 48 46 46 46 46 46 46 46 44 44 43 43 43 41 41 39 39 39 37 37 37 37 39 41 48 49 48 48 34 32 46 37 39 43 41 43 39 37 41 39 39 36 37 39 44 44 44 46 46 46 46 46 48 48 48 48 49 48 49 48 48 48 48 49 49 49 49 49 51 51 53 51 51 53 53 51 51 51 51 51 51 49 51 51 51 53 53 51 51 51 51 49 49 48 48 48 48 49 48 48 
31 36 43 48 51 55 58 56 56 58 58 56 56 56 55 55 55 53 53 51 51 51 51 51 49 49 49 48 48 46 46 44 46 44 44 44 44 44 43 43 43 41 43 41 41 39 39 37 39 37 39 41 46 48 48 48 36 32 48 43 36 39 41 37 36 29 32 29 34 32 36 41 44 44 46 46 48 48 48 48 48 48 48 48 48 48 48 48 48 48 49 49 49 49 49 51 51 51 51 51 51 51 51 51 51 49 49 51 49 51 51 51 51 51 48 46 48 48 49 48 51 51 53 48 48 49 48 48 
18 17 20 24 27 34 41 48 51 55 55 56 56 55 56 55 53 53 51 53 51 51 51 51 51 48 49 48 49 48 48 48 48 46 44 46 44 44 43 43 41 41 41 41 41 39 39 37 39 39 39 43 48 49 49 48 37 32 43 34 18 10 1 0 0 0 1 10 10 8 15 29 43 46 46 46 48 46 46 46 48 48 48 48 49 49 49 49 48 49 51 49 51 51 51 51 51 51 53 51 51 51 53 53 51 51 51 51 51 48 48 48 49 49 49 49 51 49 51 48 51 49 49 48 48 48 48 48 
18 17 18 18 17 20 18 20 24 25 31 37 43 48 51 55 55 53 53 51 51 51 51 51 51 51 49 48 49 49 48 48 46 44 44 46 44 44 44 43 43 43 41 41 41 41 39 39 39 39 41 43 48 49 48 48 34 27 22 6 0 0 8 18 5 13 22 32 24 24 25 10 8 24 43 46 48 48 48 46 48 48 48 48 51 49 49 49 49 49 49 49 51 51 53 53 51 53 53 53 53 53 51 51 51 49 49 48 49 51 51 51 51 51 51 49 49 51 49 49 49 49 51 48 49 48 49 49 
34 32 32 27 25 22 20 18 18 18 18 18 17 12 22 46 55 55 53 53 53 53 51 51 51 49 49 49 49 48 48 48 48 48 46 46 44 44 44 44 44 43 43 41 41 41 39 39 39 39 41 43 48 39 36 39 13 5 3 0 0 1 3 3 1 1 3 8 12 13 27 34 6 0 3 22 46 48 48 48 48 48 49 49 51 51 49 49 51 51 51 51 51 51 51 51 51 49 51 49 51 51 51 51 51 51 53 49 51 51 51 51 51 49 49 49 49 49 49 49 49 49 49 48 48 48 48 48 
67 72 74 68 63 43 27 29 25 18 17 18 17 10 17 44 55 53 53 53 51 49 51 51 51 49 49 49 48 48 48 48 48 46 46 46 49 56 53 48 46 44 43 43 41 43 41 39 41 39 39 39 24 12 18 15 0 0 0 0 1 5 1 5 0 0 0 0 0 0 0 5 13 17 13 1 3 31 48 48 49 49 49 51 51 49 51 49 51 49 51 51 51 51 49 51 51 49 49 51 51 49 49 49 49 49 51 49 49 49 49 51 51 51 51 51 51 49 49 48 49 49 49 48 48 48 49 48 
74 74 80 80 77 56 44 56 58 48 44 36 27 15 17 39 55 55 55 53 53 60 60 56 56 53 51 49 49 49 49 48 48 46 46 46 56 67 63 58 56 51 44 41 41 41 43 39 39 39 34 12 1 0 1 0 0 0 0 1 0 1 1 0 0 0 0 0 1 3 6 13 10 18 29 32 12 0 17 48 49 49 49 49 49 49 49 49 49 51 51 51 51 51 51 51 51 49 51 51 51 49 51 51 49 49 53 51 51 51 49 49 51 49 51 48 48 48 49 49 49 48 49 48 49 48 48 48 
55 65 74 77 79 60 55 63 68 60 74 72 63 22 20 44 56 55 53 53 55 70 68 67 62 58 56 55 51 49 49 48 46 48 48 46 56 65 62 58 60 56 48 43 43 43 41 41 39 34 13 20 5 0 0 0 0 5 5 5 0 0 0 0 5 3 0 0 0 0 0 1 5 20 39 43 29 25 3 8 43 49 49 49 49 51 49 51 51 49 51 51 49 49 51 49 51 51 53 49 51 51 51 49 49 49 53 51 51 51 51 51 51 49 51 51 51 49 49 49 48 49 48 48 49 48 48 48 
6 13 20 29 48 63 60 65 70 72 77 77 74 25 20 46 58 56 55 53 56 72 72 67 63 65 68 67 60 60 56 51 46 46 46 46 51 44 44 48 56 58 51 43 43 43 41 39 37 15 12 5 0 0 0 0 0 0 0 0 0 0 0 0 0 8 3 1 0 0 1 13 24 13 8 1 3 5 3 0 3 41 51 49 49 51 49 51 51 51 51 53 51 51 53 51 51 51 53 51 51 51 51 51 51 51 53 51 53 51 51 51 49 49 49 49 49 49 49 49 49 49 49 49 49 49 49 48 
0 0 1 3 17 63 62 67 70 74 77 79 75 32 20 51 62 58 58 58 58 60 51 60 65 70 72 68 44 41 51 56 58 56 58 53 49 25 15 15 15 20 44 44 43 41 43 36 25 8 15 6 0 0 0 0 0 0 0 0 1 0 0 0 0 0 1 0 0 1 1 1 0 0 0 6 12 17 25 12 0 3 39 51 53 53 53 51 51 51 51 53 53 51 53 51 53 53 53 53 53 53 53 53 51 51 53 53 51 51 49 49 51 51 53 49 51 51 49 51 51 51 51 49 49 49 49 48 
0 0 17 13 24 60 43 53 62 72 74 74 72 34 22 51 63 53 55 63 70 37 0 12 37 46 49 60 20 0 1 10 20 29 43 49 51 24 3 8 6 0 39 46 44 44 34 24 5 0 10 0 0 10 1 0 3 0 1 3 3 0 1 0 0 0 0 0 12 13 0 0 1 0 0 1 5 10 10 24 18 3 0 27 51 53 53 51 53 53 53 55 55 53 55 53 53 53 53 55 53 53 53 53 53 53 55 55 53 51 51 51 53 51 53 51 53 51 51 53 53 53 51 51 51 51 49 49 
0 0 17 15 27 58 1 5 10 24 36 37 62 37 24 46 63 62 58 67 75 43 0 0 10 17 17 44 20 0 0 0 0 0 0 10 51 20 0 0 1 0 41 46 43 39 18 6 0 6 0 0 0 10 0 0 0 3 6 5 5 6 18 12 10 3 0 0 5 0 0 0 6 3 0 0 1 13 22 12 13 25 5 0 18 51 55 55 55 55 53 55 55 55 55 53 55 55 55 56 56 55 55 55 55 53 55 55 55 51 53 53 53 53 55 53 55 53 53 53 53 53 51 49 51 51 51 51 
0 0 0 0 22 58 1 0 0 0 0 0 41 39 22 10 13 25 41 58 68 44 0 0 5 6 12 43 25 0 0 0 0 0 0 5 49 12 0 0 0 0 44 49 46 24 18 1 3 1 0 0 5 0 0 3 6 13 8 10 6 27 31 36 25 12 17 1 0 0 0 5 5 0 6 0 0 0 13 18 6 12 17 5 0 15 53 55 55 56 56 56 56 56 56 56 56 58 56 56 56 56 56 55 56 56 56 55 56 56 55 55 55 55 55 56 56 56 56 55 55 55 55 55 55 55 53 51 
0 1 1 0 20 58 0 0 0 0 0 0 41 41 22 1 0 0 0 1 8 29 0 0 0 0 1 36 22 0 0 0 1 0 0 3 49 8 0 0 0 0 44 49 43 15 13 0 13 3 0 0 5 0 0 1 17 12 1 5 10 10 8 25 22 18 25 22 24 3 0 0 12 12 13 1 0 0 0 1 1 5 5 5 1 0 25 58 56 56 56 58 56 56 56 56 58 56 58 58 58 58 56 58 58 56 56 55 56 56 56 56 56 56 56 56 58 56 56 55 55 55 53 55 53 53 53 53 
15 17 17 0 20 58 1 0 8 10 0 0 39 43 24 1 0 0 0 0 0 17 0 0 0 0 0 41 25 0 0 0 15 6 0 1 48 6 0 0 0 0 39 49 27 12 0 1 13 1 0 12 1 0 3 3 17 0 5 6 0 0 1 13 29 29 44 49 46 13 0 0 6 3 1 6 6 0 3 5 8 5 1 0 0 0 0 37 56 56 56 58 58 58 58 58 58 60 58 56 56 56 56 56 56 56 56 58 56 56 56 56 55 55 56 56 56 56 56 55 55 55 55 55 56 56 56 56 
1 5 8 0 18 58 1 1 1 20 0 0 37 41 22 1 0 0 0 0 0 13 0 0 0 0 0 39 31 0 0 1 18 18 13 1 46 8 0 0 0 0 34 49 13 1 0 10 6 1 1 10 0 1 3 12 0 0 13 0 0 0 0 10 20 20 36 49 37 13 5 5 3 0 0 10 5 1 0 6 13 15 8 3 1 0 0 3 49 58 56 56 58 56 58 56 58 58 58 58 58 58 58 58 58 58 58 58 56 56 56 56 55 53 56 58 56 56 58 56 56 56 58 56 55 55 55 56 
1 5 0 0 17 55 1 0 0 1 0 0 37 41 22 3 0 0 8 0 0 12 0 0 0 0 0 37 36 0 0 1 18 18 17 3 44 12 0 0 0 0 31 48 1 0 3 8 0 8 8 3 0 12 3 3 0 8 1 1 0 0 0 1 0 6 22 31 34 27 15 32 15 5 1 0 1 0 0 3 0 1 0 3 0 0 0 0 13 53 56 56 58 58 56 58 58 60 58 60 58 58 58 56 56 56 58 58 56 55 58 56 56 56 56 60 58 58 56 56 56 55 51 51 51 53 53 55 
0 5 0 0 17 51 0 0 0 0 0 0 37 39 22 3 6 3 3 0 0 12 1 0 0 0 3 39 41 0 0 0 5 13 17 1 43 44 25 15 10 8 32 31 0 3 0 1 1 0 5 0 0 0 5 1 0 0 5 0 0 0 0 0 1 3 10 18 39 51 27 60 34 6 1 3 0 0 0 1 1 0 1 6 17 0 0 0 0 29 58 56 56 56 56 56 58 58 58 60 58 58 58 58 56 58 58 58 58 56 56 56 55 55 56 56 53 53 53 55 53 46 43 39 36 32 27 24 
48 46 34 25 37 55 3 0 1 0 0 0 41 41 24 6 6 0 0 0 0 15 5 0 0 0 3 43 62 24 18 12 3 1 10 0 41 68 63 60 62 62 67 22 0 6 1 0 0 0 1 0 0 0 1 5 1 1 0 0 5 5 0 0 5 1 12 13 32 44 39 53 48 53 32 25 5 0 0 0 0 1 8 5 8 10 1 0 0 1 51 56 56 56 58 58 58 58 58 60 58 58 56 55 55 56 55 55 53 53 56 51 51 49 51 44 41 36 31 27 24 20 18 18 18 18 18 20 
53 67 70 72 67 79 65 37 46 46 43 37 56 34 22 5 0 0 0 0 0 34 58 41 37 27 17 43 74 44 44 46 43 37 34 32 60 65 62 63 68 75 67 6 8 5 1 0 5 0 0 0 3 3 0 1 1 3 0 5 3 1 12 5 1 5 10 12 22 29 46 65 75 70 53 49 37 20 8 1 0 0 0 5 3 0 13 3 0 0 24 58 56 56 56 56 56 56 56 56 53 55 55 53 53 53 51 49 44 41 37 32 31 25 24 24 22 22 22 22 25 25 27 29 29 31 31 32 
25 25 20 18 70 98 80 48 63 75 75 75 72 36 24 5 0 0 0 0 0 39 84 68 72 75 77 75 65 22 20 22 24 25 27 34 41 37 39 46 56 58 36 5 24 1 0 6 1 0 0 3 5 6 13 1 8 0 12 3 3 12 12 0 3 8 10 12 24 34 46 86 79 80 79 84 79 46 34 18 12 6 5 5 1 0 8 20 5 0 0 43 58 56 58 58 56 56 56 53 49 48 55 44 34 31 29 25 25 24 25 25 27 29 29 31 32 34 36 36 37 37 39 39 39 39 41 39 
10 6 3 3 75 96 68 49 67 75 75 80 75 34 22 15 6 3 0 0 0 41 75 67 79 82 86 70 55 25 20 18 17 13 12 12 10 12 15 18 43 44 13 8 25 3 0 5 0 0 3 17 22 5 1 8 0 0 3 0 5 6 5 0 1 5 3 8 18 20 44 94 103 122 115 105 91 79 51 49 44 25 10 6 12 5 5 10 17 0 0 24 53 51 48 44 41 36 32 31 29 27 48 39 24 29 32 32 34 36 36 37 39 39 41 41 41 43 44 44 44 44 44 46 46 46 46 46 
0 0 0 3 72 84 37 18 36 43 48 55 68 37 25 46 68 62 49 37 29 55 56 63 75 80 84 74 60 32 20 17 13 13 13 15 13 13 15 20 41 20 8 13 20 1 3 0 0 0 25 17 17 0 0 3 1 0 0 0 1 1 0 0 3 1 3 8 17 34 60 94 120 139 146 141 127 105 106 118 99 56 25 12 12 3 0 3 10 3 0 6 34 31 31 31 32 32 34 36 36 36 41 37 31 37 43 43 44 46 46 48 48 48 46 46 48 49 49 51 49 51 49 49 49 49 49 46 
0 0 0 1 68 84 27 0 0 0 0 1 41 41 25 49 79 79 77 75 75 77 37 29 43 53 62 58 60 36 20 13 5 3 8 17 17 15 18 25 48 29 0 15 10 12 6 0 0 5 34 13 5 0 0 0 0 0 0 1 6 3 0 15 0 5 0 8 15 43 72 122 153 167 168 156 148 153 143 134 134 113 62 20 10 5 6 5 13 6 0 0 25 39 41 41 43 44 44 46 48 44 46 44 37 48 49 49 49 53 53 51 53 51 53 53 51 53 51 51 53 53 53 53 53 51 53 51 
0 0 0 0 60 86 27 0 0 0 0 0 34 43 24 44 75 79 77 79 80 79 20 0 0 3 12 24 55 34 17 8 0 0 0 6 6 1 6 12 44 18 0 8 17 22 5 5 0 13 3 1 3 0 0 1 0 0 6 1 0 1 8 3 5 18 12 6 15 58 94 146 160 180 184 189 184 174 165 153 137 134 98 46 13 1 6 10 3 0 0 0 10 46 49 49 51 51 51 53 51 46 27 24 37 51 53 53 53 53 53 55 55 53 55 53 55 53 53 53 55 53 55 53 53 51 51 51 
0 0 0 0 48 79 24 0 0 0 24 34 43 49 36 43 56 60 60 63 68 72 13 0 0 0 0 10 58 34 15 6 0 0 0 0 0 0 0 1 37 8 1 1 22 5 5 10 0 3 1 0 3 0 1 0 0 5 12 0 5 1 5 13 13 8 10 18 25 63 125 155 177 187 198 199 203 205 191 174 156 143 136 94 48 15 0 6 8 6 0 0 8 48 51 55 55 55 56 55 51 46 12 3 29 53 56 56 55 55 55 55 56 56 55 55 55 55 55 55 53 53 53 53 51 51 51 51 
0 0 0 0 44 74 20 0 0 0 31 43 39 43 34 36 36 39 49 49 60 68 12 0 0 0 0 1 55 25 5 0 0 1 10 1 0 0 0 1 29 1 0 3 10 3 10 8 10 0 1 0 3 0 15 0 1 15 3 5 3 0 0 5 3 3 8 8 37 77 132 167 184 191 203 206 211 213 205 198 180 160 146 129 91 41 6 0 3 12 1 0 0 43 56 55 55 46 31 22 22 41 15 6 25 53 58 58 56 56 56 55 55 56 56 56 53 53 53 53 53 53 53 55 53 51 49 49 
0 0 0 0 44 72 17 0 0 0 10 20 31 36 32 34 37 41 51 49 63 67 12 0 0 0 0 1 56 13 0 0 0 0 10 13 3 0 0 0 22 0 1 0 0 0 17 15 13 0 0 3 0 5 12 0 13 1 3 1 0 0 1 6 6 5 3 10 41 89 127 168 189 196 203 213 213 218 217 199 203 182 149 137 122 77 25 0 0 1 5 0 5 20 53 51 18 5 0 1 5 29 6 0 24 51 55 56 55 55 56 56 56 55 55 56 55 55 55 53 53 53 51 53 53 53 51 51 
0 0 0 0 51 74 15 0 0 0 0 0 13 29 29 25 10 17 27 36 46 53 12 0 0 0 0 3 58 13 0 0 0 3 13 22 17 1 0 0 12 0 0 0 0 0 5 18 3 0 6 13 0 10 1 1 8 3 10 0 0 10 3 1 3 1 1 20 51 94 132 174 198 199 205 210 215 215 215 208 211 206 174 141 130 105 48 6 0 0 3 0 3 5 5 5 0 5 0 0 0 3 8 0 24 53 56 56 56 56 56 56 55 55 55 55 55 55 53 53 53 53 53 55 53 51 51 51 
0 0 0 0 55 74 15 0 0 1 0 0 17 41 39 27 0 0 0 0 0 13 10 0 0 0 0 3 56 8 0 0 0 13 29 25 13 1 0 0 6 1 0 0 0 0 5 5 0 0 1 5 5 22 1 6 3 1 0 3 0 1 3 1 1 5 18 31 48 87 141 187 199 199 199 210 215 223 225 223 222 208 199 163 124 111 80 25 0 0 0 3 0 0 0 0 0 22 3 0 0 0 13 0 31 53 56 58 56 56 56 55 55 56 55 56 55 55 53 53 53 53 53 53 53 51 53 51 
10 5 3 1 60 75 17 0 0 6 0 0 18 51 41 27 0 0 0 0 0 10 10 0 3 12 0 1 53 6 0 0 0 5 17 17 0 0 0 0 1 0 0 0 1 0 1 0 0 5 1 0 13 20 5 13 5 0 3 1 0 6 3 1 0 20 27 27 51 87 143 184 194 199 201 208 217 222 227 225 222 211 189 182 143 115 98 48 6 0 0 0 0 0 0 0 0 5 0 0 0 0 25 12 41 56 58 58 58 56 56 56 56 55 55 55 55 55 55 53 53 53 53 53 55 53 53 53 
49 53 56 46 60 65 29 0 0 10 6 0 15 55 43 31 0 0 5 1 0 6 12 0 13 24 5 1 51 5 0 0 0 0 5 15 0 0 0 0 0 0 0 0 3 0 0 0 0 0 1 3 10 6 5 6 0 0 1 1 1 5 1 1 15 24 13 34 46 80 139 180 189 201 196 199 210 220 222 218 206 210 196 179 163 125 103 68 18 0 0 0 0 0 0 0 0 0 0 0 0 3 41 41 48 56 58 58 56 55 56 55 55 55 56 56 56 55 55 55 55 53 55 55 55 53 53 51 
17 18 31 27 37 60 53 39 29 34 37 27 32 56 34 25 0 1 22 12 0 6 22 6 29 27 20 6 51 6 0 0 0 0 5 18 0 0 0 0 0 0 0 0 0 0 0 0 0 0 0 0 6 0 5 1 1 0 1 0 0 5 1 1 5 10 15 25 36 75 137 180 186 196 196 201 206 211 215 211 210 206 196 177 161 132 108 84 32 0 0 0 0 0 0 0 0 5 13 13 13 34 48 49 56 58 58 58 58 58 58 56 56 55 56 56 55 55 55 53 53 53 53 53 53 48 53 53 
0 0 13 15 27 62 55 37 36 48 60 67 72 67 39 27 0 3 24 12 1 5 56 56 65 62 62 60 68 10 0 0 0 0 6 25 0 0 0 0 0 0 0 0 0 0 0 1 0 0 0 0 10 3 1 0 3 0 5 0 0 1 1 3 5 6 22 24 41 70 148 184 180 191 194 192 198 203 213 206 205 203 194 179 165 146 120 93 55 6 0 0 0 0 0 0 0 25 56 55 55 53 51 55 58 58 58 58 58 56 56 56 56 56 55 55 56 56 55 55 55 55 53 53 53 51 51 51 
0 3 8 17 39 63 51 5 0 6 15 37 74 67 37 29 3 0 3 0 0 5 62 68 74 72 77 86 80 37 31 25 15 13 22 31 13 12 10 5 0 0 0 0 0 0 0 0 0 0 0 0 3 0 1 0 3 0 3 0 0 6 8 3 1 18 25 24 34 75 149 177 186 191 192 192 196 210 217 208 203 205 198 182 167 158 129 99 63 20 0 0 0 0 0 0 0 25 58 56 55 53 55 56 56 56 56 56 58 58 58 58 56 56 56 56 56 55 55 55 53 53 53 53 51 53 53 51 
22 46 20 6 36 67 49 1 0 24 27 37 72 60 37 34 22 0 0 0 0 3 58 65 68 67 75 82 79 60 56 55 51 51 51 49 43 37 36 29 1 0 0 0 0 0 0 0 0 0 0 0 0 0 0 0 0 3 6 1 6 18 5 0 8 12 24 27 39 74 143 180 191 189 189 189 196 205 211 203 205 206 194 180 167 158 134 106 68 36 3 1 0 0 0 0 0 22 58 58 56 53 56 56 58 56 56 56 58 56 55 55 55 55 55 55 56 56 55 55 55 55 55 53 53 51 53 51 
44 49 6 0 34 68 49 0 0 17 41 51 70 48 34 36 18 0 0 0 0 3 56 58 62 62 62 56 55 58 62 62 60 58 58 58 55 56 55 41 3 0 0 0 0 0 0 0 0 0 0 0 0 0 0 0 0 5 6 3 12 1 3 3 6 13 29 31 44 80 149 189 198 192 191 191 198 203 203 203 205 205 196 186 174 161 144 120 87 46 17 12 0 0 0 0 0 17 60 58 56 56 58 58 58 56 58 58 58 56 58 58 56 55 56 55 55 55 55 55 55 53 53 53 53 53 51 51 
37 56 3 0 36 74 51 0 0 0 10 48 72 46 39 37 18 3 1 1 0 5 62 58 56 56 56 56 58 63 63 67 74 68 60 58 60 72 72 56 6 0 0 0 0 0 0 0 0 0 0 0 0 0 0 0 0 0 0 3 5 0 1 3 12 17 24 29 48 89 165 194 194 198 191 187 198 199 206 205 206 203 206 192 177 163 149 130 99 65 34 22 1 0 0 0 0 15 58 58 60 60 60 60 58 56 58 58 58 56 58 56 56 56 56 55 56 55 53 55 53 53 55 53 53 53 49 49 
15 25 1 0 37 74 53 0 0 0 0 39 74 48 37 37 51 56 51 48 49 49 72 63 62 60 62 65 70 70 67 72 80 75 58 51 55 74 72 53 10 0 0 0 0 0 0 0 0 0 0 0 0 0 0 0 0 0 1 3 0 0 3 8 10 15 25 32 62 113 163 192 199 198 194 191 194 205 206 211 211 205 205 192 175 167 151 132 113 77 49 24 10 0 0 1 0 13 58 58 60 60 60 60 58 58 58 56 58 56 56 56 56 56 56 56 56 55 55 55 53 53 51 53 51 53 51 51 
0 0 0 0 34 75 51 0 0 0 0 34 75 46 37 39 70 84 82 82 86 86 84 67 58 56 56 63 74 77 67 68 72 65 60 55 49 56 49 41 10 0 0 0 0 0 0 0 0 0 0 1 0 0 0 0 0 0 6 1 0 3 10 8 8 24 24 37 67 137 168 194 194 198 194 192 199 208 211 217 208 203 199 187 170 163 148 130 118 89 67 34 17 0 0 3 1 12 43 56 56 58 60 58 58 58 60 58 58 56 58 56 55 55 55 55 55 53 55 55 53 55 53 53 51 53 49 49 
0 0 0 0 32 74 48 0 0 0 0 34 75 48 36 39 63 79 79 80 80 82 82 44 22 15 15 20 39 72 67 49 25 29 31 36 51 43 8 1 0 0 0 0 0 0 0 0 0 0 0 0 0 0 0 0 0 0 1 0 0 8 5 3 17 22 31 63 91 148 175 198 198 194 198 198 203 215 217 213 203 192 196 189 168 155 144 130 125 99 79 39 10 0 0 0 0 0 12 22 39 56 60 58 58 58 58 56 56 56 56 56 55 55 55 56 56 55 55 55 53 55 55 53 53 51 49 48 
0 0 0 0 31 75 48 0 0 0 0 27 70 43 37 36 43 49 48 49 49 51 55 24 0 0 0 0 10 65 60 15 0 0 5 22 55 44 3 0 0 0 0 0 0 0 0 0 0 0 0 0 0 0 0 0 0 0 0 0 0 5 0 6 22 22 56 72 113 148 186 198 198 203 199 199 199 199 186 189 179 168 170 167 160 146 139 130 127 101 79 20 0 0 0 1 0 0 10 5 17 55 62 60 60 58 60 58 58 58 56 58 56 55 55 55 56 55 55 55 53 55 55 55 53 53 51 48 
0 0 0 0 29 75 51 0 0 0 0 25 72 48 36 37 48 58 58 56 55 55 55 27 1 0 0 0 22 67 44 0 0 0 0 17 58 48 3 0 0 0 0 0 0 0 0 0 0 1 6 0 0 0 0 0 0 0 0 0 0 0 1 17 24 34 77 77 149 160 194 196 198 201 196 192 177 165 165 153 127 110 113 124 130 134 132 129 120 96 46 10 12 0 0 1 0 0 12 8 12 56 63 62 62 60 60 60 56 56 56 56 56 56 55 55 56 56 56 56 55 56 55 55 53 49 46 44 
15 18 25 31 53 72 48 0 0 0 0 29 77 49 32 37 53 63 63 63 63 65 62 29 3 0 0 0 15 60 31 0 0 0 0 13 56 46 5 0 0 0 0 0 0 0 0 0 3 48 6 0 0 0 0 0 0 0 0 0 0 0 1 20 24 41 74 101 156 172 189 192 201 203 186 172 149 141 137 127 98 68 55 53 75 96 113 118 110 68 32 60 39 0 0 0 0 0 8 10 8 53 62 60 63 60 60 60 58 56 58 56 56 56 55 55 55 56 56 55 55 55 55 53 51 46 46 44 
63 67 70 72 70 56 41 25 18 15 10 36 72 46 37 43 53 62 63 63 65 67 67 29 0 0 0 6 6 53 27 0 0 0 0 13 58 44 5 0 0 0 0 0 0 0 0 0 46 51 0 0 0 0 0 0 0 0 0 0 0 0 0 22 20 63 67 143 155 180 186 192 196 194 175 148 125 127 122 98 77 58 68 62 58 68 91 108 93 56 79 84 49 0 0 0 0 0 12 10 10 53 63 62 60 60 58 56 56 56 55 55 55 55 55 56 56 56 58 56 56 55 55 53 49 48 44 44 
65 68 68 67 67 65 63 63 62 60 56 58 63 58 56 58 58 60 60 60 60 62 63 46 10 0 0 5 3 49 25 0 0 0 0 10 58 43 6 0 0 0 0 0 0 0 0 0 84 17 0 0 0 0 0 0 0 0 0 0 0 0 0 25 29 80 82 146 161 182 186 189 187 174 163 143 137 127 117 115 98 99 93 82 75 72 91 106 74 75 75 74 41 0 0 0 0 0 12 13 20 46 58 58 58 58 58 58 58 56 56 58 56 49 44 51 55 55 55 55 55 53 51 49 49 48 46 44 
56 63 63 62 62 62 62 62 62 60 62 60 60 60 60 60 60 60 60 58 58 58 58 55 22 0 0 6 3 46 25 0 0 0 0 5 55 46 10 0 0 0 0 0 0 0 0 6 68 0 0 0 0 0 0 0 0 0 0 0 0 0 5 22 51 65 117 151 175 180 186 189 182 170 160 156 148 146 160 151 132 110 87 72 80 94 115 103 67 79 41 3 1 0 0 6 5 1 6 17 22 43 60 62 62 60 60 58 58 56 56 56 29 3 8 5 37 55 55 55 55 53 51 49 49 46 44 41 
55 63 62 60 62 60 62 60 62 60 60 60 58 58 56 56 56 55 55 55 55 55 55 55 22 0 0 0 0 44 27 0 0 0 0 3 53 46 6 0 0 0 0 0 0 0 0 17 41 0 5 6 1 0 0 0 0 0 0 0 0 0 13 22 67 60 139 177 189 179 179 182 175 170 161 158 161 160 155 120 84 51 44 65 84 110 124 94 80 143 56 3 0 0 0 1 0 0 12 17 17 43 60 60 60 58 60 58 58 56 56 56 24 0 1 0 31 55 53 53 51 51 49 48 48 46 46 44 
51 62 56 39 34 32 31 29 27 24 24 22 20 18 18 18 18 17 17 17 17 25 49 55 27 0 0 0 0 37 32 0 0 0 0 5 51 51 25 15 13 18 10 0 0 0 0 22 32 5 31 15 13 0 0 0 0 0 0 0 0 1 20 43 68 89 163 194 194 196 187 177 168 158 151 156 148 110 80 77 29 1 37 74 99 124 134 118 106 115 77 20 17 18 22 22 24 25 32 34 32 37 41 43 36 39 56 60 60 58 56 55 17 0 0 0 18 56 55 53 53 51 51 49 48 48 48 48 
49 60 49 10 0 0 0 0 0 0 0 0 0 0 0 0 0 0 0 0 0 10 55 56 41 10 10 22 24 41 51 36 34 41 43 49 68 56 53 60 62 65 56 0 0 0 0 12 37 55 65 51 17 0 1 17 0 0 0 0 0 6 41 79 99 134 189 201 205 196 184 172 158 155 155 125 75 62 89 122 34 34 44 105 137 161 168 122 91 84 63 39 37 46 49 41 44 49 44 43 34 24 65 91 24 29 53 58 58 55 51 49 13 0 0 0 13 55 53 53 51 49 49 49 49 48 48 49 
46 60 53 17 0 0 0 0 0 0 0 0 0 0 0 0 0 0 0 0 0 6 56 58 53 55 56 60 58 53 56 72 68 68 77 82 84 62 51 63 68 77 74 18 0 0 0 6 96 101 120 70 12 0 32 24 1 1 0 0 0 29 65 122 127 170 191 198 203 198 192 184 167 151 120 99 110 118 125 113 84 74 74 124 170 189 196 137 72 74 75 62 43 49 79 96 111 125 127 94 36 39 149 199 32 22 51 56 55 18 6 6 0 0 0 0 12 51 51 51 49 48 49 48 49 49 49 48 
43 60 55 24 0 0 0 0 0 0 0 0 0 0 0 0 0 0 0 0 0 3 53 58 53 58 65 65 55 44 43 62 63 63 67 72 70 60 43 51 56 60 53 37 0 0 0 0 118 139 148 70 8 0 24 22 1 24 1 0 10 60 117 160 163 184 196 194 196 194 198 196 187 165 141 156 158 158 153 124 94 82 84 139 177 192 205 172 94 74 89 84 44 51 98 134 141 148 148 103 39 82 218 194 122 24 48 56 44 0 0 0 0 0 0 0 8 51 49 49 48 48 48 48 49 49 49 46 
41 58 55 29 0 0 0 0 0 0 0 0 0 0 0 0 0 0 0 0 0 1 49 60 53 51 55 62 56 46 37 34 32 32 37 41 44 49 46 51 55 53 41 37 8 0 0 0 91 163 167 89 22 3 13 51 24 56 3 6 37 101 155 170 170 184 198 198 203 199 198 205 206 203 184 170 163 148 141 124 101 86 117 160 182 196 208 196 129 87 108 108 55 58 56 67 67 58 56 51 44 55 80 51 48 37 43 56 46 1 0 0 0 0 0 0 6 51 49 49 48 49 51 51 51 49 49 48 
41 58 58 36 0 0 0 0 0 0 0 0 0 0 0 0 0 0 0 0 0 0 46 60 51 39 34 41 43 36 41 36 34 39 49 55 51 56 60 63 68 65 53 43 22 0 0 0 44 184 186 148 39 13 18 82 91 89 18 43 70 122 160 168 172 179 194 203 206 203 201 206 210 208 201 179 160 137 113 96 96 120 156 180 199 205 210 206 158 108 118 117 60 58 41 41 51 32 32 37 43 43 43 41 43 37 43 58 55 18 0 0 0 0 0 0 5 41 51 49 51 53 53 51 53 53 51 49 
39 58 58 39 1 0 0 0 0 0 0 0 0 0 0 0 0 0 0 0 0 0 41 62 49 17 1 3 8 17 43 46 56 60 74 75 43 41 43 48 58 74 58 48 37 6 0 0 10 167 192 182 82 18 24 127 148 129 93 91 110 136 156 158 167 174 189 196 205 205 203 206 210 218 215 194 175 153 130 125 136 165 186 196 208 213 215 208 184 125 122 118 60 56 43 41 37 32 31 34 44 44 44 43 43 37 39 56 51 43 1 0 0 0 0 0 0 17 53 51 53 51 53 51 51 53 53 49 
39 56 56 41 5 0 0 0 0 0 0 0 0 0 0 0 0 0 0 0 0 0 34 62 48 13 0 0 0 13 46 44 58 53 56 65 8 1 1 1 24 68 62 51 49 31 3 0 0 111 198 184 160 120 48 141 161 143 139 122 124 136 151 155 158 168 180 191 205 206 205 206 210 217 225 211 189 165 153 148 160 180 179 199 217 223 215 210 199 149 125 113 53 55 43 37 32 34 31 37 48 48 46 43 41 34 31 34 5 1 6 0 0 0 0 0 0 13 53 53 53 53 53 55 51 49 48 44 
37 55 56 43 6 0 0 0 0 0 0 0 0 0 0 0 0 0 0 0 0 0 29 62 51 18 0 0 0 10 48 39 53 31 10 46 6 0 0 0 13 65 62 53 53 44 13 0 0 55 192 189 194 210 149 82 149 148 149 137 132 139 148 148 149 163 170 184 196 208 208 206 210 213 225 223 199 177 161 158 172 172 168 198 215 218 213 206 210 172 130 113 55 53 44 36 32 34 31 37 46 44 44 41 41 36 8 1 0 0 5 0 0 0 0 0 0 1 41 51 51 51 51 51 49 48 46 44 
36 55 58 46 10 0 0 0 0 0 0 0 0 0 0 0 0 0 0 0 0 0 24 62 51 20 0 0 0 12 48 39 55 27 3 46 10 0 0 0 6 60 62 55 53 49 25 0 0 13 172 208 199 210 218 167 153 148 148 139 137 139 143 146 148 155 167 177 191 203 211 210 206 210 220 227 215 189 174 168 167 160 165 191 206 210 211 211 220 194 132 106 60 53 46 34 27 34 31 37 46 44 44 43 41 37 3 0 1 8 0 0 0 0 0 0 0 0 27 49 48 49 51 51 49 46 44 44 
36 53 58 48 12 0 0 0 0 0 0 0 0 0 0 0 0 0 0 0 0 0 18 60 53 25 0 0 0 13 49 41 56 27 3 44 15 0 0 0 3 56 63 53 53 49 37 5 0 0 98 213 211 199 211 203 175 148 149 141 137 139 144 141 149 149 161 168 182 194 205 208 206 208 213 225 218 199 187 177 170 160 160 175 189 210 213 213 217 203 144 99 62 53 41 24 13 32 31 39 46 44 43 44 43 39 3 0 5 13 0 0 0 0 0 0 0 0 1 12 12 39 51 49 48 48 44 43 
34 51 56 48 13 0 0 0 0 0 0 0 0 0 0 0 0 0 0 0 0 0 15 60 53 27 0 0 0 10 48 41 55 27 3 39 18 0 0 0 3 53 62 53 53 51 39 8 0 3 22 177 218 206 211 208 192 144 146 141 137 137 141 137 146 144 155 163 172 184 192 203 205 206 206 205 208 211 196 179 165 151 148 158 189 211 210 208 215 198 151 98 63 44 31 8 10 27 27 37 46 44 44 44 44 41 8 5 15 17 6 5 5 3 3 3 3 1 1 1 3 37 51 49 49 48 48 44 
34 49 58 48 15 0 0 0 0 0 0 0 0 0 0 0 0 0 0 0 0 0 12 60 53 32 0 1 0 6 49 43 56 34 3 36 25 1 1 3 3 49 62 51 53 53 43 17 0 0 3 80 203 215 213 211 205 139 148 141 141 139 137 143 144 143 151 161 165 174 184 191 196 201 201 201 211 217 194 174 160 149 137 172 186 189 196 208 222 201 156 113 60 43 31 6 10 27 29 39 48 44 44 43 44 43 15 18 20 20 17 13 10 6 5 10 15 17 20 24 32 56 63 63 65 63 63 60 
32 48 56 49 18 0 0 0 0 0 0 0 0 0 0 0 0 0 0 0 0 0 10 60 55 34 0 5 15 6 49 44 58 44 10 32 25 10 13 3 0 43 62 51 51 49 43 25 0 0 1 6 143 198 213 213 194 122 141 137 139 139 134 139 141 139 151 156 165 172 179 182 187 192 194 196 198 196 182 167 153 136 124 172 189 187 206 206 215 206 160 136 60 44 29 12 20 27 29 39 46 46 44 44 46 44 12 1 5 1 0 0 0 0 0 49 67 67 68 70 70 72 72 72 72 70 68 68 
32 46 58 49 18 0 0 0 0 0 0 0 0 0 0 0 0 0 0 0 0 0 8 56 53 37 8 13 31 24 55 49 58 46 22 29 25 12 17 6 5 36 53 49 48 48 43 34 3 0 0 0 29 141 182 192 146 84 136 134 137 136 134 136 139 141 151 156 160 163 172 180 184 187 187 191 191 184 175 160 143 124 103 180 205 206 205 194 194 194 160 127 55 43 36 20 31 31 32 46 49 46 44 44 46 43 10 0 0 0 0 0 0 0 6 67 68 68 67 67 67 67 65 65 63 63 63 65 
31 44 55 49 20 0 0 0 0 0 0 0 0 0 0 0 0 0 0 0 0 0 8 56 53 48 58 62 67 65 74 55 58 34 25 29 41 32 32 31 29 37 41 46 48 48 41 31 5 0 0 0 10 63 118 130 75 80 134 134 134 136 134 134 137 143 151 161 167 168 172 175 175 179 182 184 186 180 174 153 129 111 89 180 206 198 182 167 167 168 143 98 55 49 36 32 29 32 34 48 49 44 43 44 44 41 12 0 0 0 0 0 0 0 18 56 51 55 58 62 56 55 44 53 53 49 60 63 
29 43 55 49 24 0 0 0 0 0 0 0 0 0 0 0 0 0 0 0 0 0 6 55 53 51 79 82 82 82 82 67 58 27 10 24 44 37 37 36 36 36 39 44 46 46 41 29 12 0 0 0 3 56 111 125 111 113 130 134 136 137 136 137 139 146 149 161 172 174 174 168 167 170 177 179 180 180 163 143 122 132 79 155 168 146 93 74 115 136 98 70 53 51 37 32 27 34 36 48 49 46 44 44 44 43 13 0 0 0 0 0 0 0 10 17 12 25 41 53 46 43 37 37 43 43 58 63 
29 41 55 49 22 0 0 0 0 0 0 0 0 0 0 0 0 0 0 0 0 0 5 53 55 49 63 65 62 60 58 49 53 27 0 20 44 41 43 41 41 41 41 44 44 44 41 36 15 0 0 0 6 44 108 118 118 124 130 134 141 141 139 141 144 148 151 161 168 174 174 167 170 172 177 177 180 175 158 132 125 160 108 101 105 87 43 17 80 103 60 65 53 51 36 32 27 34 36 49 48 46 44 46 43 43 13 0 0 0 0 0 0 0 0 0 0 8 43 55 56 55 53 56 56 55 60 63 
29 41 55 49 24 0 0 0 0 0 0 0 0 0 0 0 0 0 0 0 0 0 5 51 53 41 31 29 27 27 27 27 51 29 0 17 44 43 43 41 41 41 41 41 41 41 41 36 25 6 0 0 25 62 103 122 122 125 129 134 134 134 141 139 146 153 156 163 168 174 177 179 179 172 174 174 174 163 146 124 136 167 180 187 170 172 139 87 96 87 51 62 51 49 36 32 27 36 37 49 49 46 46 46 44 44 15 0 0 0 0 0 0 0 0 0 0 3 55 62 62 62 62 58 60 60 60 60 
27 39 55 49 24 0 0 0 0 0 0 0 0 0 0 0 0 0 0 0 0 0 3 51 53 41 31 27 27 27 27 27 49 36 10 25 46 39 41 39 39 37 39 39 41 41 39 39 34 17 0 0 25 68 101 122 125 124 130 132 136 139 143 148 151 153 155 163 172 170 175 177 179 180 174 172 163 153 132 122 155 175 177 179 179 163 136 117 91 70 62 58 49 49 29 27 27 34 39 49 48 46 46 46 44 43 15 0 0 0 0 0 0 0 0 0 0 0 49 63 60 62 60 58 60 56 58 58 
25 37 53 49 25 0 0 0 0 0 0 0 0 0 0 0 0 0 0 0 0 0 5 53 53 43 36 34 32 32 29 32 55 53 49 60 51 36 39 39 37 37 36 37 37 37 37 39 37 29 0 0 32 79 99 124 129 129 127 130 132 137 139 148 151 156 158 167 168 172 175 180 175 174 170 168 158 143 124 134 170 170 175 174 163 155 129 125 101 48 67 56 51 46 25 24 27 31 37 48 49 48 48 46 46 43 17 0 0 0 0 0 0 10 0 0 0 0 25 44 46 53 39 41 43 37 41 44 
25 37 51 48 25 0 0 0 0 0 0 0 1 1 3 5 8 10 12 15 18 20 29 51 48 43 39 39 37 37 34 31 44 41 41 44 41 36 37 37 36 36 36 36 36 36 37 36 37 31 17 12 53 86 98 124 132 127 127 130 132 137 137 146 151 158 163 167 168 172 174 175 174 170 172 165 151 137 129 161 170 167 165 172 180 177 144 136 105 56 67 51 49 44 31 22 15 32 37 44 46 46 46 46 44 43 17 0 0 0 0 0 6 17 0 0 0 0 12 44 51 46 43 44 43 36 43 44 
25 36 51 49 36 15 15 18 22 27 29 34 36 37 39 41 43 43 44 44 44 44 43 43 43 43 37 37 37 37 34 31 34 29 25 31 34 37 37 36 36 36 36 34 34 34 36 36 36 34 34 31 77 96 98 124 134 132 127 125 130 134 136 141 149 158 167 170 172 174 174 172 170 170 170 161 149 132 146 158 153 158 179 196 182 146 127 122 89 48 68 46 37 29 10 5 10 6 27 32 41 44 44 43 41 44 18 0 0 0 0 0 27 15 0 0 0 0 8 60 62 56 58 60 56 53 58 58 
25 34 51 53 51 48 44 48 51 53 51 49 49 49 48 48 48 48 48 46 44 44 43 43 43 43 39 39 39 37 36 34 36 32 27 29 34 36 37 36 36 34 34 34 34 36 36 34 36 34 27 31 80 101 99 122 136 134 127 127 129 132 134 137 148 160 165 168 170 172 170 165 163 168 165 151 139 136 137 144 144 156 161 129 103 98 91 94 55 49 68 32 6 1 0 1 1 0 0 17 53 37 39 39 36 43 22 0 0 0 0 0 34 6 0 0 0 0 1 49 65 65 63 63 63 62 62 62 
24 34 51 51 53 51 43 46 51 51 49 49 49 48 51 55 37 29 34 39 36 22 36 37 37 37 39 39 39 37 34 34 34 32 27 29 34 36 36 36 34 34 34 34 34 34 34 34 34 31 17 25 87 108 101 118 137 134 132 129 125 125 125 130 146 155 161 168 174 172 168 167 167 168 163 146 144 146 125 115 106 101 89 86 86 79 91 113 136 132 89 44 24 0 0 1 0 0 0 1 43 27 34 37 24 29 27 10 1 0 0 0 5 0 0 0 0 0 0 15 49 53 51 53 53 53 58 60 
22 32 51 51 51 49 44 44 46 46 44 43 43 63 91 62 6 0 0 3 5 0 8 24 24 22 15 13 13 24 36 36 36 32 29 29 32 34 36 34 32 32 32 32 32 32 34 34 34 31 18 29 93 110 106 118 137 136 134 130 127 118 127 132 141 149 158 163 172 172 168 163 163 165 160 153 148 139 111 87 77 105 141 155 146 120 103 136 167 165 105 60 48 0 0 0 0 0 0 0 25 22 31 37 32 31 13 18 10 0 0 0 0 0 0 0 0 0 0 8 20 34 36 37 34 39 56 60 
6 13 25 25 22 20 17 13 13 18 24 25 48 105 84 15 0 0 0 0 0 0 0 0 0 0 0 0 0 0 25 37 34 32 31 29 32 34 34 34 34 34 34 34 32 32 34 34 34 34 22 34 98 115 111 113 137 139 136 132 129 118 125 132 139 146 153 161 167 170 167 163 158 158 160 151 144 122 98 117 146 149 139 125 136 118 113 153 165 165 94 8 6 0 0 3 3 1 5 5 13 29 31 13 10 8 0 0 0 0 0 0 0 0 0 0 0 0 0 12 15 39 55 55 53 55 58 60 
0 0 0 0 0 0 0 1 1 3 27 32 82 103 34 0 0 0 0 0 0 0 0 0 0 0 0 0 0 0 15 37 36 32 31 29 32 34 32 32 32 32 32 31 32 32 32 36 44 46 34 44 101 115 115 113 136 141 137 129 127 125 124 129 132 143 149 156 163 163 163 156 160 160 156 155 137 117 127 146 155 153 153 134 125 105 103 115 113 117 79 37 37 31 25 27 18 12 17 8 6 10 5 1 1 0 0 0 0 0 0 0 0 0 0 0 0 0 0 1 1 12 56 63 63 63 63 62 
0 0 0 0 0 0 6 13 12 8 27 48 96 63 6 0 0 0 0 0 0 0 0 0 0 0 0 0 0 0 24 43 39 34 34 32 32 32 32 32 32 31 31 31 31 31 31 25 29 31 27 55 105 117 117 111 132 141 139 130 127 125 124 127 129 134 144 149 155 158 158 155 156 151 149 144 129 124 141 144 144 134 127 110 98 103 118 87 58 49 29 22 15 10 5 5 0 0 0 0 0 0 0 0 0 0 0 0 0 0 0 0 0 0 0 0 0 0 0 0 0 0 44 65 63 63 63 62 
1 3 0 0 0 0 5 17 17 15 8 67 93 20 0 13 25 0 0 0 0 0 0 0 0 0 0 0 0 18 43 44 41 37 34 34 31 31 31 29 29 29 29 29 29 29 29 25 27 25 20 62 110 115 117 111 129 143 139 130 124 124 124 117 118 127 134 143 148 148 151 148 146 141 141 132 125 132 134 136 129 118 105 99 106 89 48 72 74 68 13 0 0 0 0 0 0 0 0 0 0 0 3 0 0 0 0 0 0 0 0 0 0 0 0 0 0 0 0 0 0 0 29 62 60 60 60 58 
5 5 1 0 0 1 12 25 25 18 5 79 82 20 37 62 62 13 0 10 6 0 0 0 0 0 0 0 0 12 20 18 15 22 31 29 27 27 27 25 25 25 27 25 27 25 27 24 25 32 49 82 111 115 115 108 122 141 143 132 124 120 120 120 117 122 125 130 137 143 144 146 141 144 141 127 127 130 132 129 127 120 120 124 117 82 43 93 93 80 18 0 3 10 15 25 43 62 31 67 72 55 98 105 111 39 0 0 0 0 0 0 0 0 0 0 0 0 0 0 0 0 17 56 56 55 55 55 
5 5 6 12 20 25 29 24 22 6 12 84 48 13 53 67 67 27 5 49 49 22 0 5 12 3 0 0 0 0 0 0 0 3 25 25 24 22 22 20 20 22 22 20 22 22 24 24 65 72 75 99 113 118 117 108 118 136 148 137 122 113 117 117 111 111 108 122 124 130 137 137 130 137 132 134 136 136 143 144 151 148 144 125 108 72 41 84 84 79 141 144 179 198 208 218 222 223 149 229 196 177 222 199 192 89 0 0 0 3 0 0 0 0 0 0 0 0 0 0 0 0 3 44 44 44 43 44 
1 3 6 10 24 32 25 8 6 0 22 93 37 6 56 68 67 20 34 75 67 44 3 3 3 0 0 0 0 0 0 0 0 0 18 20 20 18 17 17 18 17 18 18 18 20 32 110 103 68 86 110 115 120 118 105 111 136 148 144 125 110 110 113 113 106 108 110 115 120 130 127 130 136 136 141 143 148 151 153 158 155 134 108 94 98 56 86 82 79 153 143 132 149 161 177 196 203 117 144 134 177 167 111 108 77 1 29 13 36 1 0 0 0 0 0 0 0 0 0 0 0 0 36 44 46 46 43 
0 0 1 8 22 32 13 0 0 0 31 98 37 8 39 18 44 48 70 84 67 46 10 6 1 0 0 0 0 0 0 0 0 0 17 20 18 18 17 17 17 17 17 25 37 96 156 192 111 96 101 117 117 118 118 108 110 134 151 153 141 110 103 105 105 105 108 103 105 110 117 117 122 125 129 125 146 153 156 151 155 143 122 103 103 177 165 113 89 77 101 111 113 134 137 168 165 155 93 115 179 184 151 160 151 70 5 25 15 18 5 0 0 0 0 0 0 0 0 0 0 0 0 13 44 48 46 44 
0 0 0 6 22 29 10 0 0 0 32 103 49 8 18 3 41 67 87 77 43 46 15 1 0 0 0 0 0 0 0 0 0 0 12 22 24 22 18 17 17 27 63 148 172 191 194 196 141 105 103 115 117 118 118 110 105 127 153 156 146 124 96 94 94 103 105 103 103 99 99 105 110 110 118 132 144 153 153 148 143 130 113 101 124 198 199 196 177 113 113 115 99 125 117 118 99 67 68 89 111 93 62 62 70 34 0 8 12 1 0 0 0 0 0 0 0 0 0 0 0 0 0 1 43 46 43 46 
5 3 3 12 24 27 12 10 5 0 32 105 77 24 12 5 49 80 94 49 3 36 12 0 0 0 0 0 0 0 0 0 0 0 12 46 48 44 49 80 122 156 168 165 184 187 192 187 163 108 105 106 115 118 120 113 99 118 143 161 160 143 108 86 86 91 96 103 98 99 99 94 94 99 105 118 130 139 130 127 125 115 110 108 184 196 198 196 180 179 175 160 122 70 36 13 13 17 18 20 43 36 27 24 0 0 5 3 3 18 0 0 0 0 0 0 0 0 0 0 0 0 0 1 46 48 44 46 
10 6 10 27 37 37 29 32 24 0 22 89 82 39 5 3 53 82 67 22 0 36 13 0 0 0 0 0 0 0 0 0 0 0 20 87 146 191 206 206 186 177 186 175 182 184 180 179 175 122 113 99 117 120 122 113 99 113 132 156 168 161 125 87 79 84 86 89 94 96 96 96 96 91 86 96 106 115 113 99 99 103 134 180 192 189 198 192 179 177 184 187 194 189 158 101 60 55 51 37 63 60 41 37 1 0 17 8 3 18 13 0 0 0 0 0 0 0 0 0 0 0 0 3 48 48 49 49 
8 6 17 46 43 39 34 32 25 0 15 89 91 53 1 5 48 49 15 1 0 5 0 0 0 0 0 0 0 0 0 0 8 74 158 192 199 208 211 206 203 198 205 205 199 191 184 179 180 160 103 103 110 122 122 115 106 111 129 153 167 167 155 111 80 75 75 74 77 79 86 93 93 89 80 72 80 87 89 91 80 139 196 194 186 187 194 180 175 182 186 186 198 192 182 177 160 118 91 39 51 51 51 68 3 0 15 6 1 3 8 5 0 0 0 0 0 0 0 0 0 0 0 5 44 44 51 46 
10 1 5 29 43 46 44 39 32 1 5 58 53 27 0 0 5 1 0 0 0 0 0 0 0 0 0 0 0 6 62 127 180 208 215 208 205 210 222 222 215 210 222 225 211 206 196 191 194 189 124 110 101 124 125 118 111 111 125 149 167 167 161 143 101 72 65 60 55 46 37 51 62 72 74 68 74 110 136 115 99 186 194 194 177 187 198 172 177 182 182 179 187 187 184 180 175 167 165 132 94 75 117 134 10 3 18 3 5 0 5 1 0 0 0 5 0 0 0 0 0 0 0 8 46 43 46 51 
17 3 0 3 17 27 20 12 5 0 0 1 0 0 0 0 0 0 0 0 0 0 0 0 0 0 0 20 99 184 217 232 232 234 234 232 222 210 217 227 227 223 218 225 215 223 227 208 192 191 170 113 98 110 124 122 117 117 125 148 161 168 168 155 130 91 63 53 43 37 37 41 43 39 37 53 101 148 144 113 170 196 184 186 174 182 179 175 168 186 179 168 179 180 187 182 174 170 168 175 177 170 165 153 15 3 6 0 1 3 3 0 0 0 0 6 0 0 0 0 0 0 0 22 46 43 46 53 
6 0 0 0 0 0 0 0 0 0 0 0 1 5 6 0 1 1 8 1 8 12 0 0 0 32 129 208 227 227 232 237 241 239 234 239 236 211 189 206 225 232 225 227 218 229 237 229 211 199 205 174 118 105 124 129 124 124 124 146 168 172 167 153 149 129 87 53 44 44 51 63 74 75 86 113 149 160 155 179 198 198 187 172 172 189 167 172 172 189 182 179 187 187 186 184 184 167 174 192 187 191 192 191 146 68 5 1 0 3 5 1 0 0 0 1 0 0 0 0 0 0 0 24 48 48 46 48 
0 0 0 0 0 0 0 0 0 0 0 0 34 51 39 18 25 31 34 13 25 13 1 49 143 196 208 211 213 211 211 213 230 234 234 208 189 211 232 222 220 222 232 227 229 225 239 234 225 215 206 208 191 127 134 130 127 129 127 137 160 167 161 151 148 137 113 82 67 67 84 98 110 125 137 155 165 177 213 215 211 213 191 174 182 174 175 175 186 182 184 182 191 194 194 189 187 184 186 206 198 201 201 196 189 184 156 72 6 0 12 6 0 1 0 1 0 0 0 0 0 0 3 29 53 56 55 56 
0 0 0 0 0 0 0 0 0 0 0 0 32 53 53 72 48 53 51 41 37 36 139 194 199 170 113 125 134 129 113 118 187 205 217 230 236 210 203 217 223 213 220 230 229 234 232 237 236 227 215 213 211 208 148 132 127 136 132 130 148 161 160 149 137 146 144 134 124 124 137 149 155 161 161 167 182 223 232 229 230 227 206 217 203 199 196 203 199 189 194 206 205 198 203 196 201 205 208 206 210 201 210 203 205 196 192 187 155 58 10 8 0 5 0 1 0 0 0 0 0 0 3 29 51 55 53 55 
10 0 0 0 0 0 0 0 0 0 0 0 6 41 62 77 63 68 68 67 110 177 199 203 205 165 96 96 108 110 106 106 189 220 211 210 211 232 225 201 206 218 217 232 236 236 230 236 237 234 225 217 215 220 220 182 127 134 134 124 146 163 167 156 144 149 153 146 149 161 170 172 172 172 170 206 230 230 229 230 230 229 227 222 215 218 218 220 213 201 206 217 223 211 217 220 222 223 227 211 215 210 210 222 222 215 205 192 184 177 120 15 0 1 0 0 0 0 0 0 0 0 1 18 37 43 41 48 
3 0 0 0 0 0 0 0 0 0 0 0 0 20 46 55 79 68 98 165 198 206 213 220 220 177 87 91 89 93 93 115 218 237 236 225 210 205 217 236 220 230 229 230 234 236 237 234 236 236 237 234 215 208 229 230 213 158 127 118 139 160 165 156 143 143 151 153 165 177 180 179 180 194 223 234 234 229 229 229 227 227 227 215 218 223 230 229 229 218 218 220 223 218 225 225 227 225 225 220 206 213 201 217 223 217 218 194 189 186 182 141 29 0 1 0 0 0 0 0 0 0 3 27 48 53 51 51 
0 0 0 0 0 0 0 0 0 0 0 0 0 0 17 36 49 98 170 196 220 222 222 236 215 225 215 220 155 105 82 101 198 208 210 220 236 222 196 167 161 229 234 236 236 234 237 237 234 237 237 239 230 213 210 220 217 218 196 132 132 158 167 160 137 136 155 167 179 186 192 199 220 232 232 230 234 232 229 230 227 225 227 232 220 229 230 230 230 223 213 229 229 218 229 229 227 223 223 225 211 215 210 205 223 222 217 192 196 196 203 186 163 51 3 0 0 0 0 0 0 0 1 25 44 49 49 51 
0 0 0 0 0 0 0 0 0 0 0 0 0 0 0 12 91 182 184 203 227 232 223 230 218 215 192 189 196 211 143 106 205 210 208 206 203 186 155 158 161 232 237 236 237 236 230 234 237 236 237 237 236 230 218 213 213 208 201 215 198 177 172 163 148 156 186 206 223 230 232 223 225 223 232 232 234 232 227 223 220 218 230 229 229 227 230 232 232 229 211 225 230 225 227 225 227 225 223 227 218 206 223 211 222 223 215 206 205 201 213 203 186 168 60 0 0 0 0 0 0 0 0 20 39 46 44 48 
0 0 0 0 0 0 0 0 0 0 0 0 0 5 15 80 182 198 191 203 220 239 236 230 222 217 241 239 232 208 194 227 241 241 241 239 220 167 170 196 220 237 237 236 234 234 236 236 236 236 234 236 236 234 232 230 211 198 201 201 208 225 227 222 227 230 234 232 230 232 230 227 220 229 229 229 223 223 220 220 225 230 230 230 229 223 225 229 229 227 211 218 227 227 225 225 227 225 222 223 223 201 218 218 220 223 217 215 210 203 218 211 199 184 167 46 0 0 0 0 0 0 0 15 32 37 39 44 
0 0 0 0 0 0 0 0 0 0 0 0 0 8 74 179 198 206 201 215 215 241 241 237 222 210 210 206 213 210 227 210 201 198 196 192 205 223 239 239 237 232 234 237 239 237 237 234 236 236 236 236 236 236 236 234 215 215 201 198 199 208 222 222 218 218 225 222 217 217 230 230 230 225 232 230 217 225 218 230 232 230 230 229 229 223 227 229 229 229 218 215 227 227 227 227 227 225 225 225 223 205 208 223 220 225 222 217 210 210 222 217 211 196 184 160 36 0 0 0 0 0 0 1 3 5 8 22 
0 0 0 1 0 5 6 1 0 0 0 0 0 43 175 196 210 222 211 218 211 239 234 229 220 210 229 237 222 227 217 213 217 239 241 239 239 239 239 239 239 239 237 236 237 237 237 237 236 236 236 237 237 236 236 236 232 218 217 203 206 215 211 218 215 211 222 220 220 227 229 227 229 230 232 230 230 229 229 232 229 229 230 229 227 225 229 230 229 229 225 213 222 227 225 225 227 225 225 225 225 211 199 222 222 222 222 217 213 210 222 222 213 201 203 187 153 31 0 0 0 0 0 0 1 1 1 10 
0 1 3 3 0 5 6 6 3 0 0 0 10 149 192 210 211 227 220 217 210 239 236 230 229 205 191 192 196 222 241 239 237 239 239 239 237 237 239 237 237 237 236 237 239 237 237 237 237 236 236 236 236 236 236 234 234 230 210 208 217 220 229 222 211 218 217 218 229 225 230 229 230 229 229 225 229 230 230 230 230 230 230 230 229 227 227 229 229 227 227 220 222 227 225 225 227 227 227 225 223 220 191 217 222 223 222 222 217 205 222 223 222 205 210 191 180 155 27 0 0 0 0 0 0 0 0 10 
0 1 5 3 0 0 5 10 8 1 0 1 110 182 199 227 223 232 227 217 211 236 236 222 220 187 198 230 225 232 239 239 241 239 239 239 239 239 239 237 237 239 237 237 236 234 236 236 236 236 237 236 236 236 236 236 236 234 229 222 211 220 225 225 227 220 215 223 232 232 232 230 229 227 223 229 230 230 229 229 229 230 230 229 227 218 229 229 229 225 223 220 215 225 225 225 225 227 225 225 225 223 198 217 223 223 222 223 222 210 222 222 218 215 210 191 191 182 148 12 0 0 0 0 0 1 0 10 
0 1 8 5 5 0 1 8 6 5 3 79 191 191 206 232 230 237 223 215 210 232 237 229 217 149 48 65 62 148 215 237 239 239 239 239 239 239 237 229 223 230 236 236 236 237 239 237 237 237 236 236 236 236 234 234 236 234 234 234 230 223 218 225 227 229 230 230 229 230 230 230 230 229 230 232 232 232 232 232 230 230 230 229 229 225 229 229 229 227 227 223 211 223 223 225 227 225 225 225 225 223 191 206 223 223 222 222 220 205 220 223 220 220 217 205 203 187 180 117 1 0 0 0 0 0 0 8 
0 0 12 10 12 6 3 3 5 5 25 172 198 201 201 232 241 239 222 213 213 211 230 236 222 148 39 48 49 99 158 165 206 225 229 225 215 192 167 160 163 217 239 237 236 237 237 237 237 237 236 237 237 237 237 236 236 236 236 236 236 232 229 232 232 232 229 230 230 232 232 234 232 230 232 232 232 232 232 230 230 230 229 229 227 225 229 230 229 229 229 227 217 222 227 225 227 227 227 225 225 223 189 203 220 227 225 225 223 213 220 223 223 222 211 211 210 196 194 175 67 0 0 8 25 29 27 27 
0 0 3 10 12 13 8 1 3 8 127 191 201 208 215 230 237 239 220 213 210 203 234 236 222 148 37 48 49 84 151 139 148 158 161 163 156 149 153 160 167 218 239 237 237 239 237 237 237 237 237 236 237 237 236 236 236 234 234 234 234 234 234 234 234 234 234 234 234 234 234 234 234 232 232 234 232 232 230 230 230 230 229 230 229 227 227 227 229 229 227 227 217 223 229 227 225 227 229 227 227 227 203 198 220 227 225 223 223 210 222 223 223 223 218 215 206 205 194 179 167 24 0 8 36 43 43 39 
0 0 0 5 13 15 13 6 6 32 180 198 208 225 227 215 227 239 225 213 222 208 234 239 220 151 37 48 48 72 151 182 151 155 158 155 149 153 160 167 168 220 239 237 237 237 236 237 237 236 236 236 236 236 236 236 236 236 234 234 236 232 232 230 232 232 232 232 230 232 232 234 234 232 232 232 232 230 230 230 230 230 230 230 227 225 225 227 229 229 229 227 223 220 227 227 223 227 225 227 225 225 203 194 218 225 225 223 223 211 223 225 223 223 223 222 211 210 203 182 180 151 1 0 1 3 5 5 
0 0 0 0 10 13 10 5 13 127 203 215 218 229 220 220 230 239 229 213 229 208 225 237 208 149 37 48 49 49 118 236 227 215 215 203 151 160 165 165 168 218 237 237 237 237 239 237 237 237 237 236 236 236 236 234 236 234 234 236 236 234 234 234 234 232 234 234 232 232 232 232 232 232 232 230 232 230 229 230 230 229 230 230 229 223 227 227 227 227 227 227 225 222 227 227 227 225 227 225 225 227 208 187 210 222 223 223 223 210 222 223 223 223 223 223 220 217 213 199 182 177 34 0 0 0 0 0 
0 0 0 0 1 8 5 1 53 203 201 236 232 223 225 232 232 225 230 208 234 199 222 236 192 146 39 48 51 49 99 236 239 236 237 213 156 161 163 167 165 218 239 237 237 237 237 237 236 236 234 236 234 234 236 236 236 234 236 236 234 232 234 232 230 232 232 234 232 232 232 232 232 232 232 232 230 230 230 230 229 229 229 230 227 222 225 227 229 227 229 229 227 220 227 223 225 227 227 227 225 225 210 184 205 223 225 225 223 208 223 223 223 222 222 222 220 217 208 213 194 194 129 0 0 0 0 0 
0 0 0 0 0 0 0 0 146 208 203 239 239 230 217 229 232 225 229 213 237 215 218 232 191 136 37 46 51 51 87 229 239 237 239 213 160 163 165 167 161 220 237 237 236 237 237 237 237 237 234 236 236 236 236 236 236 234 234 234 232 234 234 234 232 232 232 230 232 234 232 232 232 232 232 230 230 230 230 229 230 230 229 229 229 223 229 230 229 227 225 229 227 218 223 227 227 227 227 227 227 227 217 182 203 225 223 223 223 213 223 225 223 223 223 222 223 218 217 217 199 196 187 43 0 0 0 0 
0 0 0 0 0 0 0 41 210 206 210 239 241 239 227 227 236 237 213 211 237 215 203 234 196 132 37 48 49 53 77 217 237 237 237 215 161 160 161 165 161 218 239 237 237 237 237 237 236 236 234 232 234 236 236 236 234 236 232 236 234 234 234 232 232 232 232 234 232 230 232 232 232 232 234 232 232 232 230 230 230 230 230 230 230 225 225 229 229 229 227 229 230 222 217 227 227 227 227 227 227 225 220 184 201 223 225 225 225 218 225 223 225 223 223 223 218 220 222 210 198 198 198 134 0 0 0 0 
0 0 1 0 0 0 0 130 223 205 206 236 237 239 236 236 241 239 223 198 239 215 184 234 196 127 37 46 48 53 77 210 234 239 237 208 161 163 165 165 160 215 237 236 237 236 236 236 236 236 234 234 236 236 234 234 236 232 232 234 234 234 234 234 234 232 234 234 232 234 232 232 232 232 232 230 230 230 230 229 229 229 230 230 229 223 229 229 229 229 227 227 227 227 218 225 229 227 225 225 227 227 222 177 196 215 222 223 223 217 223 223 223 223 222 220 223 223 222 218 210 203 201 191 36 0 0 0 
